<svg xmlns="http://www.w3.org/2000/svg" width="256" height="256" viewBox="0 0 256 256"><defs><linearGradient id="bg" x1="0" y1="0" x2="0" y2="1"><stop offset="0%" stop-color="#2c4f95"/><stop offset="100%" stop-color="#15264e"/></linearGradient></defs><rect width="256" height="256" rx="28" fill="url(#bg)"/><circle cx="128" cy="90" r="42" fill="#ffd9bd"/><path d="M86 88c12-34 76-34 88 0-8-48-83-48-88 0z" fill="#d4b25d"/><ellipse cx="113" cy="92" rx="4" ry="5" fill="#1c2140"/><ellipse cx="143" cy="92" rx="4" ry="5" fill="#1c2140"/><path d="M118 110c8 6 14 6 22 0" stroke="#bf6e73" stroke-width="4" fill="none" stroke-linecap="round"/><path d="M92 138c18-18 54-18 72 0l-10 54H102z" fill="#d4b25d" stroke="#ffffff22" stroke-width="2"/><path d="M112 130h32v20h-32z" fill="#fff0a6" opacity=".95"/><rect x="98" y="194" width="20" height="34" rx="10" fill="#2e365f"/><rect x="138" y="194" width="20" height="34" rx="10" fill="#2e365f"/><rect x="92" y="144" width="18" height="44" rx="9" fill="#ffd9bd"/><rect x="146" y="144" width="18" height="44" rx="9" fill="#ffd9bd"/><text x="128" y="245" text-anchor="middle" font-family="Arial" font-size="18" fill="#fff">Steward Guardian</text><text x="128" y="25" text-anchor="middle" font-family="Arial" font-size="16" fill="#d9e2ff">Female · Guard</text></svg>