<svg xmlns="http://www.w3.org/2000/svg" width="320" height="320" viewBox="0 0 320 320">
<defs>
<linearGradient id="body" x1="0" x2="0" y1="0" y2="1"><stop offset="0" stop-color="#ff9b73"/><stop offset="1" stop-color="#7d2d27"/></linearGradient>
<radialGradient id="bg" cx="50%" cy="35%" r="70%"><stop offset="0" stop-color="#fff" stop-opacity="0.22"/><stop offset="1" stop-color="#0e1022" stop-opacity="0"/></radialGradient>
</defs>
<rect width="320" height="320" rx="44" fill="#14182f"/>
<rect x="10" y="10" width="300" height="300" rx="34" fill="url(#bg)" stroke="rgba(255,255,255,0.15)"/>
<ellipse cx="160" cy="270" rx="72" ry="18" fill="#000814" opacity="0.35"/>
<path d="M88 214c0-63 31-93 72-93 37 0 72 28 72 87 0 37-22 58-72 58-42 0-72-17-72-52z" fill="url(#body)"/><path d="M118 106l26 32H98zM222 106l-26 32h46z" fill="#7d2d27"/><circle cx="135" cy="184" r="8" fill="#10162d"/><circle cx="187" cy="184" r="8" fill="#10162d"/>
</svg>